<svg width="51" height="51" viewBox="0 0 51 51" fill="none" xmlns="http://www.w3.org/2000/svg">
<path d="M27.9715 8.32555L27.9296 8.19642L28.1426 8.47146C28.3254 8.67605 28.4763 8.63077 28.6054 8.47146C28.6054 8.47146 29.7341 7.17511 28.8503 5.66578C28.3639 4.66627 26.4454 2.28824 25.4358 1.54364C23.6112 0.384812 22.434 1.27532 22.434 1.27532C22.2881 1.38432 22.1807 1.54364 22.2881 1.69122L22.5732 1.9847C19.1302 2.67396 18.6237 5.35553 18.399 6.54287L18.3621 6.73908L17.8993 9.95898C17.7517 11.0826 18.3621 11.6914 19.4354 11.6914H22.9371C24.1579 11.7081 26.7003 11.74 27.9715 8.32555Z" fill="#474747"/>
<path d="M16.7049 6.50096L16.3309 9.10371L4.47767 20.0681C4.0278 20.4438 3.69155 20.9374 3.50667 21.4936C3.43528 21.7012 3.38417 21.9152 3.35406 22.1326V22.9879C3.80854 23.0247 4.33345 22.9879 4.90532 22.8604L42.4104 12.1006C42.5352 12.0647 42.6666 12.0584 42.7942 12.082C42.9218 12.1055 43.0423 12.1584 43.146 12.2365C43.2497 12.3145 43.3339 12.4155 43.3919 12.5316C43.4499 12.6478 43.4802 12.7757 43.4804 12.9055V21.0324C43.4812 21.2124 43.4239 21.3879 43.3169 21.5326C43.2099 21.6774 43.059 21.7837 42.8867 21.8357C35.709 23.9991 7.17434 32.5972 6.47334 32.7867C5.6801 33.0048 3.92425 33.3335 3.35406 33.2597V38.5172C3.86556 38.5876 4.39717 38.5675 4.90532 38.4316L42.4088 27.5729C42.5336 27.5367 42.6652 27.5301 42.793 27.5535C42.9209 27.577 43.0415 27.6298 43.1455 27.7079C43.2494 27.786 43.3338 27.8871 43.3919 28.0034C43.45 28.1197 43.4803 28.2478 43.4804 28.3778V36.1794L44.7449 35.8171L44.7566 35.8138L44.827 35.7903C45.2376 35.6551 45.6328 35.4769 46.006 35.2587C46.7657 34.8059 46.8344 34.499 46.8344 34.4604V12.6188C46.8344 12.2532 46.6835 11.6058 46.2861 10.9803C45.9138 10.3933 45.3855 9.91875 44.6929 9.689L30.8456 6.44226C30.7844 5.88981 30.6097 5.35597 30.3325 4.87424C29.992 4.20175 29.3212 3.28106 28.6739 2.4895L45.523 6.43891C45.5625 6.44864 45.6017 6.45983 45.6404 6.47245C47.2587 6.97556 48.3974 8.04886 49.1169 9.18253C49.8212 10.2894 50.1885 11.5522 50.1885 12.6188V34.4604C50.1885 36.4393 48.6071 37.6132 47.7182 38.1415C47.0958 38.5081 46.4336 38.8024 45.7444 39.0186L45.7008 39.032L45.6857 39.0354L45.6806 39.037C45.6806 39.037 45.4358 39.1075 45.6773 39.037L4.74432 50.7863C4.72043 50.793 4.69639 50.7992 4.67221 50.8048C3.47649 51.0899 2.11809 51.0144 1.1169 49.9914C0.219691 49.0757 0 47.7693 0 46.6038V22.0605L0.00167711 21.9699V21.9447L0.00670824 21.9078C0.0167112 21.7582 0.0351882 21.6093 0.0620502 21.4618C0.109007 21.1901 0.191182 20.8228 0.335406 20.4019C0.704246 19.3125 1.35524 18.3404 2.22207 17.5845L17.9794 3.01106C17.9435 3.06252 17.9082 3.11452 17.8738 3.16702C17.1091 4.35101 16.876 5.58698 16.7619 6.19239L16.7552 6.23264C16.7394 6.32225 16.7226 6.4117 16.7049 6.50096Z" fill="#474747"/>
</svg>
