<svg width="40" height="51" viewBox="0 0 40 51" fill="none" xmlns="http://www.w3.org/2000/svg">
<path fill-rule="evenodd" clip-rule="evenodd" d="M34.4153 0.948486C35.1182 0.94879 35.813 1.09726 36.4546 1.38422C37.0962 1.67118 37.6701 2.09018 38.1388 2.61387C38.6076 3.13757 38.9606 3.75421 39.175 4.42356C39.3893 5.0929 39.4602 5.79992 39.3828 6.49849L34.9403 46.4985C34.8049 47.7219 34.223 48.8524 33.306 49.6735C32.3889 50.4946 31.2013 50.9486 29.9703 50.9485H9.44534C8.21443 50.9486 7.02675 50.4946 6.10971 49.6735C5.19268 48.8524 4.61074 47.7219 4.47534 46.4985L0.0303426 6.49849C-0.0469921 5.79971 0.0239051 5.09248 0.238407 4.42296C0.452909 3.75344 0.806192 3.13668 1.2752 2.61294C1.7442 2.0892 2.31839 1.67026 2.96027 1.38346C3.60215 1.09665 4.2973 0.948438 5.00034 0.948486H34.4153ZM34.4153 5.94849H5.00034L6.06284 15.506C6.96037 15.335 7.86815 15.223 8.78034 15.171C11.7778 14.996 15.9203 15.356 20.6928 17.401C24.6703 19.106 28.0278 19.371 30.3428 19.2335C31.2313 19.1863 32.1139 19.0608 32.9803 18.8585L34.4153 5.94849ZM32.4028 24.0485C31.8728 24.1235 31.2803 24.1885 30.6353 24.2235C27.6378 24.401 23.4953 24.041 18.7228 21.9985C14.7453 20.291 11.3878 20.026 9.07284 20.1635C8.24684 20.209 7.42585 20.321 6.61784 20.4985L9.44534 45.9485H29.9703L32.4028 24.0485ZM17.2078 28.4485C17.2078 29.1115 16.9444 29.7474 16.4756 30.2163C16.0068 30.6851 15.3709 30.9485 14.7078 30.9485C14.0448 30.9485 13.4089 30.6851 12.9401 30.2163C12.4712 29.7474 12.2078 29.1115 12.2078 28.4485C12.2078 27.7854 12.4712 27.1496 12.9401 26.6807C13.4089 26.2119 14.0448 25.9485 14.7078 25.9485C15.3709 25.9485 16.0068 26.2119 16.4756 26.6807C16.9444 27.1496 17.2078 27.7854 17.2078 28.4485ZM22.2078 38.4485C22.8709 38.4485 23.5068 38.1851 23.9756 37.7163C24.4444 37.2474 24.7078 36.6115 24.7078 35.9485C24.7078 35.2854 24.4444 34.6496 23.9756 34.1807C23.5068 33.7119 22.8709 33.4485 22.2078 33.4485C21.5448 33.4485 20.9089 33.7119 20.4401 34.1807C19.9712 34.6496 19.7078 35.2854 19.7078 35.9485C19.7078 36.6115 19.9712 37.2474 20.4401 37.7163C20.9089 38.1851 21.5448 38.4485 22.2078 38.4485Z" fill="#474747"/>
</svg>
