<svg width="53" height="51" viewBox="0 0 53 51" fill="none" xmlns="http://www.w3.org/2000/svg">
<path d="M13.1414 44.7983V48.3202C13.1414 49.0173 13.4183 49.6858 13.9112 50.1787C14.4041 50.6716 15.0726 50.9485 15.7697 50.9485H36.796C37.4931 50.9485 38.1616 50.6716 38.6545 50.1787C39.1474 49.6858 39.4243 49.0173 39.4243 48.3202V44.7983C43.4197 42.4916 46.7375 39.1738 49.0443 35.1784C51.3511 31.183 52.5656 26.6508 52.5657 22.0374C52.5657 21.3403 52.2888 20.6718 51.7959 20.1789C51.303 19.686 50.6345 19.4091 49.9374 19.4091C49.8893 17.7998 49.429 16.2299 48.6007 14.8494C47.7724 13.4689 46.6038 12.324 45.2065 11.5242C44.8715 9.23482 43.7224 7.14289 41.9701 5.63194C40.2178 4.12099 37.9796 3.29226 35.6658 3.29768C34.7786 3.29615 33.8949 3.41103 33.0375 3.63936C31.2285 1.9122 28.8235 0.948486 26.3223 0.948486C23.8211 0.948486 21.4161 1.9122 19.607 3.63936C18.7496 3.41103 17.866 3.29615 16.9787 3.29768C14.6559 3.27956 12.405 4.10254 10.6417 5.61464C8.87839 7.12674 7.72178 9.22582 7.38548 11.5242C5.98333 12.3207 4.80941 13.4642 3.97637 14.8449C3.14332 16.2256 2.67911 17.7973 2.62828 19.4091C1.93122 19.4091 1.26271 19.686 0.769807 20.1789C0.276908 20.6718 0 21.3403 0 22.0374C0.000117201 26.6508 1.2146 31.183 3.5214 35.1784C5.8282 39.1738 9.14602 42.4916 13.1414 44.7983ZM10.8023 15.8872L12.9837 15.2038L12.5632 12.8384C12.5701 12.2723 12.6884 11.7131 12.9113 11.1928C13.1343 10.6725 13.4576 10.2011 13.8628 9.80575C14.2679 9.41037 14.747 9.09867 15.2726 8.88844C15.7982 8.67822 16.3601 8.57359 16.9262 8.58054C17.6852 8.57619 18.4339 8.7566 19.1076 9.10619L21.2365 10.2889L22.5507 8.26514C22.9617 7.65259 23.5171 7.15061 24.168 6.8035C24.8189 6.45639 25.5452 6.27483 26.2828 6.27483C27.0205 6.27483 27.7468 6.45639 28.3977 6.8035C29.0486 7.15061 29.604 7.65259 30.015 8.26514L31.3292 10.2889L33.4581 9.10619C34.1318 8.7566 34.8805 8.57619 35.6395 8.58054C36.7764 8.56624 37.8733 8.99893 38.6942 9.78545C39.5152 10.572 39.9944 11.6494 40.0288 12.7858L39.6083 15.0198L41.7634 15.7558C42.5585 16.0046 43.261 16.4853 43.7808 17.1363C44.3007 17.7872 44.6141 18.5787 44.6808 19.4091H7.88485C7.95162 18.5787 8.26503 17.7872 8.78487 17.1363C9.3047 16.4853 10.0072 16.0046 10.8023 15.7558V15.8872ZM47.1514 24.6656C46.7129 28.1066 45.4299 31.3857 43.4167 34.2106C41.4036 37.0355 38.7228 39.3184 35.6133 40.8559C35.1758 41.0763 34.8087 41.4146 34.5533 41.8325C34.2978 42.2505 34.1643 42.7315 34.1677 43.2213V45.6919H18.398V43.2213C18.4014 42.7315 18.2679 42.2505 18.0124 41.8325C17.757 41.4146 17.3899 41.0763 16.9524 40.8559C13.8429 39.3184 11.1621 37.0355 9.14895 34.2106C7.13577 31.3857 5.85276 28.1066 5.41427 24.6656H47.1514Z" fill="#474747"/>
</svg>
